<?xml version="1.0" encoding="UTF-8" standalone="no"?>
<svg width="208px" height="180px" viewBox="0 0 208 180" version="1.1" xmlns="http://www.w3.org/2000/svg" xmlns:xlink="http://www.w3.org/1999/xlink">
    <!-- Generator: Sketch 3.7 (28169) - http://www.bohemiancoding.com/sketch -->
    <title>Logo 2</title>
    <desc>Created with Sketch.</desc>
    <defs></defs>
    <g id="Page-1" stroke="none" stroke-width="1" fill="none" fill-rule="evenodd">
        <g id="iPad-Portrait" transform="translate(-473.000000, -403.000000)" fill="#000000">
            <g id="Logo-2" transform="translate(471.000000, 402.000000)">
                <g id="Paddle" transform="translate(19.500000, 91.500000) rotate(-278.000000) translate(-19.500000, -91.500000) translate(-71.000000, 85.000000)">
                    <path d="M31.555165,9.01033707 C29.989146,10.1425242 25.1436879,12.1501979 21.5066894,12.3473391 C16.0519361,12.6430105 8.90163235,12.6029573 4.84628584,10.6253037 C2.26914572,8.38569409 2.05572052,7.98218247 0.640978394,5.74968338 C0.0827118924,4.86872464 -0.631901529,1.81248058 1.03937225,0.783851321 C2.71064603,-0.244777934 11.5041396,-0.184376496 17.4273433,0.521361247 C20.8411661,1.10440917 23.5127447,1.12085184 28.8832431,3.12537539 C30.6567633,3.67850056 31.2852705,4.90259941 34.5931082,4.90259902 C35.0538413,4.90259897 35.3006241,4.90259897 35.9315608,4.90259902 C35.8547082,5.27843704 35.9315608,7.0926055 35.9315608,7.50839099 C33.5418312,7.50839094 32.7354294,8.15703954 31.555165,9.01033707 Z" id="Oval-1"></path>
                    <path d="M149.010623,9.01033707 C150.576642,10.1425242 155.4221,12.1501979 159.059099,12.3473391 C164.513852,12.6430105 171.664156,12.6029573 175.719502,10.6253037 C178.296642,8.38569409 178.510068,7.98218247 179.92481,5.74968338 C180.483076,4.86872464 181.19769,1.81248058 179.526416,0.783851321 C177.855142,-0.244777934 169.061649,-0.184376496 163.138445,0.521361247 C159.724622,1.10440917 157.053043,1.12085184 151.682545,3.12537539 C149.909025,3.67850056 149.280518,4.90259941 145.97268,4.90259902 C145.511947,4.90259897 145.265164,4.90259897 144.634227,4.90259902 C144.71108,5.27843704 144.634227,7.0926055 144.634227,7.50839099 C147.023957,7.50839094 147.830359,8.15703954 149.010623,9.01033707 Z" id="Oval-1"></path>
                    <polygon id="Rectangle-1" points="35.6345198 4.89742285 144.634227 4.89742292 144.634227 7.51356733 35.6345198 7.51356726"></polygon>
                </g>
                <path d="M39.9890214,75.1794674 C40.2920635,77.2409383 40.6254048,79.3781665 40.9890553,81.5912162 C41.3527058,83.8042659 41.7163508,86.1840164 42.0800013,88.7305393 C44.8679885,86.9722259 47.7923008,85.1987812 50.8530259,83.410152 C53.913751,81.6215228 56.7774557,80.1815464 59.4442261,79.0901794 C59.6866598,79.0295479 60.0048492,79.0143903 60.3988039,79.044706 C60.7927586,79.0750218 61.2018593,79.1659677 61.6261182,79.3175464 C62.0503771,79.4691252 62.4140222,79.6661746 62.7170643,79.9087006 C63.0201064,80.1512265 63.2322326,80.4543795 63.3534495,80.8181685 C63.4746663,81.242589 63.383755,81.8034219 63.080713,82.5006841 C62.7776709,83.1979463 62.4443296,83.6072028 62.0806791,83.7284658 C61.3533781,84.1528863 60.3988098,84.7137192 59.2169457,85.4109814 C58.0350815,86.1082437 56.7926276,86.8509684 55.4895466,87.6391778 C54.1864657,88.4273873 52.913708,89.2155849 51.6712354,90.0037944 C50.4287629,90.7920039 49.3832834,91.4589403 48.5347655,92.0046238 C51.9894453,93.8842002 55.3683139,95.4909108 58.6714726,96.8248038 C61.9746314,98.1586967 65.474715,99.2500473 69.1718284,100.098888 C69.535479,100.15952 69.9142759,100.386884 70.3082306,100.780989 C70.7021853,101.175094 71.0203747,101.644981 71.2628084,102.190664 C71.5052421,102.736348 71.641609,103.282023 71.6719132,103.827707 C71.7022174,104.37339 71.5658505,104.858435 71.2628084,105.282855 C70.8991579,105.767907 70.3991459,106.055903 69.7627576,106.14685 C69.1263692,106.237797 68.4748385,106.222639 67.8081459,106.101377 C63.2019062,105.01001 58.9896843,103.660979 55.171354,102.054244 C51.3530237,100.44751 47.3529282,98.4921731 43.1709474,96.1881762 C43.4739895,98.7953306 43.7618752,101.493392 44.034613,104.282441 C44.3073509,107.07149 44.5649328,110.012073 44.8073665,113.104279 C44.8073665,113.771226 44.5346327,114.150167 43.989157,114.241114 C43.4436812,114.332062 42.8376061,114.316904 42.1709135,114.195641 C41.5042209,114.074378 40.8981458,113.862171 40.3526701,113.559013 C39.8071943,113.255856 39.473853,112.952703 39.3526362,112.649545 C38.9889857,109.860497 38.6101888,106.919913 38.2162341,103.827707 C37.8222793,100.7355 37.3828749,97.5978674 36.8980076,94.4147138 C36.4131402,91.2315602 35.8979764,88.0787696 35.3525007,84.9562475 C34.8070249,81.8337254 34.2615573,78.8476689 33.7160816,75.9979885 C33.5948647,75.331042 33.7463835,74.558002 34.1706424,73.6788453 C34.5949014,72.7996886 35.382799,72.2994863 36.5343589,72.1782233 C36.9586178,72.1782233 37.3677185,72.2843268 37.7616732,72.496537 C38.1556279,72.7087473 38.519273,72.9815849 38.8526193,73.3150582 C39.1859656,73.6485314 39.4435475,73.9819996 39.6253727,74.3154729 C39.807198,74.6489461 39.928413,74.9369414 39.9890214,75.1794674 L39.9890214,75.1794674 Z M98.1728112,80.1815409 C98.4152448,81.8792229 98.6122192,83.6829829 98.7637403,85.592875 C98.9152613,87.5027672 99.0364763,89.4277884 99.127389,91.3679963 C99.2183016,93.3082042 99.2637572,95.1877524 99.2637572,97.0066974 C99.2637572,98.8256423 99.2334535,100.462668 99.172845,101.917824 C101.112314,103.251717 102.279009,104.434014 102.672964,105.464749 C103.066918,106.495484 103.112374,107.404943 102.809332,108.193153 C102.445681,109.28452 101.794151,109.845353 100.85472,109.875668 C99.9152897,109.905984 98.8395065,109.587674 97.6273381,108.920727 C96.7788203,109.527042 95.8091001,110.178821 94.7181486,110.876083 C93.6271971,111.573345 92.4756545,112.240282 91.2634861,112.876912 C90.0513178,113.513543 88.8391676,114.074376 87.6269993,114.559428 C86.4148309,115.04448 85.293592,115.377948 84.2632489,115.559843 C82.3237796,115.863 80.5813137,115.499217 79.0357991,114.468481 C77.4902844,113.437746 76.4448049,111.891666 75.8993291,109.830195 C75.5356786,108.435671 75.4447674,106.995694 75.6265926,105.510222 C75.8084179,104.024751 76.2629742,102.599932 76.9902752,101.235723 C77.7175762,99.8715145 78.7024482,98.6437451 79.9449208,97.5523781 C81.1873933,96.4610111 82.6571254,95.6121829 84.3541611,95.0058679 C84.77842,94.8239734 85.3693432,94.672397 86.1269484,94.551134 C86.8845536,94.429871 87.6724513,94.384398 88.4906649,94.4147138 C89.3088785,94.4450295 90.1422318,94.6117637 90.9907496,94.9149211 C91.8392674,95.2180786 92.6271651,95.7334386 93.3544661,96.4610166 C93.3544661,95.4302811 93.3393142,94.2934576 93.30901,93.0505119 C93.2787058,91.8075662 93.2332501,90.5494815 93.1726417,89.2762201 C93.1120333,88.0029586 93.0362739,86.8055045 92.9453613,85.6838218 C92.8544487,84.5621391 92.7483855,83.6072073 92.6271687,82.8189979 C92.5059519,81.9095254 92.1574587,81.3486925 91.5816787,81.1364822 C91.0058988,80.924272 90.2937605,80.9697449 89.4452427,81.2729024 C87.9906407,81.7579544 86.2936304,82.6977285 84.3541611,84.092253 C82.4146917,85.4867774 80.5661627,86.9722268 78.8085186,88.5486457 C78.2630429,89.0943292 77.6418159,89.3368516 76.9448191,89.2762201 C76.2478223,89.2155886 75.6568991,88.9427509 75.1720318,88.457699 C74.6871644,87.972647 74.4144306,87.411814 74.3538222,86.7751833 C74.2932138,86.1385526 74.5356438,85.4564585 75.0811196,84.7288805 C76.1114627,83.6375135 77.2630053,82.5158477 78.5357821,81.3638492 C79.8085589,80.2118508 81.1419241,79.1659731 82.5359177,78.2261849 C83.9299113,77.2863967 85.3541877,76.5133567 86.8087897,75.9070417 C88.2633917,75.3007268 89.7179719,74.9672585 91.1725739,74.906627 C93.2938686,74.8459955 94.9302713,75.3158826 96.0818312,76.3163023 C97.2333911,77.316722 97.9303775,78.605122 98.1728112,80.1815409 L98.1728112,80.1815409 Z M87.6269993,99.7351011 C86.8390898,99.9169956 86.0057366,100.295937 85.1269145,100.871936 C84.2480925,101.447935 83.4601949,102.145187 82.7631981,102.963712 C82.0662013,103.782237 81.5510375,104.691696 81.2176912,105.692116 C80.8843449,106.692536 80.869193,107.677783 81.1722351,108.647887 C81.2934519,109.011676 81.5510338,109.284513 81.9449885,109.466408 C82.3389433,109.648302 82.7783477,109.678618 83.263215,109.557355 C84.717817,109.254197 86.3693716,108.663049 88.2179284,107.783892 C90.0664851,106.904735 91.5362172,105.949804 92.6271687,104.919068 C92.6271687,104.555279 92.4453462,104.085392 92.0816957,103.509393 C91.7180452,102.933394 91.2937926,102.357403 90.8089253,101.781404 C90.3240579,101.205405 89.7937422,100.705202 89.2179623,100.280782 C88.6421823,99.8563614 88.1118666,99.6744696 87.6269993,99.7351011 L87.6269993,99.7351011 Z M136.265011,85.1836145 C136.446836,88.4577153 136.643811,91.7620824 136.85594,95.0968147 C137.06807,98.4315471 137.113525,101.720756 136.992308,104.964542 C136.871092,108.208327 136.552902,111.376275 136.037731,114.468481 C135.522559,117.560688 134.658902,120.516429 133.446734,123.335793 C132.234565,126.155158 130.613314,128.777431 128.582933,131.202691 C126.552551,133.627951 123.991883,135.810652 120.900854,137.75086 C120.415987,138.054017 119.885671,138.235909 119.309891,138.296541 C118.734111,138.357172 118.173492,138.342015 117.628016,138.251067 C117.08254,138.16012 116.59768,138.008544 116.173421,137.796333 C115.749162,137.584123 115.476428,137.296128 115.355212,136.932339 C115.173386,136.386655 115.264298,135.780349 115.627948,135.113403 C115.991599,134.446457 116.597674,133.749205 117.446192,133.021627 C120.112962,131.020787 122.35544,128.898717 124.173692,126.655351 C125.991945,124.411986 127.446525,121.986762 128.537476,119.379608 C129.628428,116.772454 130.340566,113.937974 130.673912,110.876083 C131.007259,107.814192 130.992107,104.464352 130.628456,100.826463 C129.901155,101.735935 129.05265,102.675709 128.082916,103.645813 C127.113181,104.615917 126.082853,105.479903 124.991902,106.237797 C123.90095,106.99569 122.779711,107.632312 121.628151,108.147679 C120.476591,108.663047 119.385656,108.920727 118.355313,108.920727 C117.506795,108.920727 116.65829,108.738835 115.809772,108.375046 C114.961255,108.011257 114.112749,107.314006 113.264232,106.28327 C112.294497,105.010009 111.43084,103.570032 110.673235,101.963297 C109.91563,100.356563 109.264099,98.7953252 108.718623,97.2795377 C108.173147,95.7637503 107.733743,94.3995621 107.400397,93.1869321 C107.06705,91.9743022 106.870076,91.1254739 106.809467,90.6404219 C106.688251,90.034107 106.688251,89.4581164 106.809467,88.9124329 C106.930684,88.3667494 107.324633,88.0332812 107.991326,87.9120182 C108.900452,87.7301237 109.748957,87.7907543 110.536866,88.0939118 C111.324776,88.3970693 111.870243,88.882114 112.173286,89.5490605 C112.415719,90.2160069 112.749061,91.2467269 113.173319,92.6412514 C113.597578,94.0357758 114.112742,95.4151217 114.718826,96.7793304 C115.324911,98.1435391 115.976441,99.3409932 116.673438,100.371729 C117.370435,101.402464 118.112877,101.917824 118.900786,101.917824 C119.809913,101.917824 120.885696,101.463095 122.128168,100.553622 C123.370641,99.6441498 124.567639,98.4618533 125.719199,97.0066974 C126.870759,95.5515414 127.855631,93.9296732 128.673845,92.141044 C129.492058,90.3524148 129.901159,88.6092854 129.901159,86.9116035 C129.901159,86.5478145 129.961767,86.1234004 130.082983,85.6383484 C130.2042,85.1532964 130.386023,84.6834094 130.628456,84.2286731 C130.87089,83.7739369 131.158776,83.3798381 131.492122,83.0463649 C131.825468,82.7128916 132.173961,82.5158422 132.537612,82.4552107 C133.507347,82.3339477 134.371004,82.5916277 135.128609,83.2282584 C135.886214,83.8648892 136.265011,84.516668 136.265011,85.1836145 L136.265011,85.1836145 Z M167.720622,80.1815409 C167.963056,81.8792229 168.16003,83.6829829 168.311551,85.592875 C168.463072,87.5027672 168.584288,89.4277884 168.6752,91.3679963 C168.766113,93.3082042 168.811568,95.1877524 168.811568,97.0066974 C168.811568,98.8256423 168.781265,100.462668 168.720656,101.917824 C170.660126,103.251717 171.82682,104.434014 172.220775,105.464749 C172.61473,106.495484 172.660185,107.404943 172.357143,108.193153 C171.993493,109.28452 171.341962,109.845353 170.402531,109.875668 C169.463101,109.905984 168.387318,109.587674 167.175149,108.920727 C166.326631,109.527042 165.356911,110.178821 164.26596,110.876083 C163.175008,111.573345 162.023466,112.240282 160.811297,112.876912 C159.599129,113.513543 158.386979,114.074376 157.17481,114.559428 C155.962642,115.04448 154.841403,115.377948 153.81106,115.559843 C151.871591,115.863 150.129125,115.499217 148.58361,114.468481 C147.038096,113.437746 145.992616,111.891666 145.44714,109.830195 C145.08349,108.435671 144.992579,106.995694 145.174404,105.510222 C145.356229,104.024751 145.810785,102.599932 146.538086,101.235723 C147.265387,99.8715145 148.250259,98.6437451 149.492732,97.5523781 C150.735205,96.4610111 152.204937,95.6121829 153.901972,95.0058679 C154.326231,94.8239734 154.917154,94.672397 155.67476,94.551134 C156.432365,94.429871 157.220262,94.384398 158.038476,94.4147138 C158.85669,94.4450295 159.690043,94.6117637 160.538561,94.9149211 C161.387079,95.2180786 162.174976,95.7334386 162.902277,96.4610166 C162.902277,95.4302811 162.887125,94.2934576 162.856821,93.0505119 C162.826517,91.8075662 162.781061,90.5494815 162.720453,89.2762201 C162.659844,88.0029586 162.584085,86.8055045 162.493172,85.6838218 C162.40226,84.5621391 162.296197,83.6072073 162.17498,82.8189979 C162.053763,81.9095254 161.70527,81.3486925 161.12949,81.1364822 C160.55371,80.924272 159.841572,80.9697449 158.993054,81.2729024 C157.538452,81.7579544 155.841442,82.6977285 153.901972,84.092253 C151.962503,85.4867774 150.113974,86.9722268 148.35633,88.5486457 C147.810854,89.0943292 147.189627,89.3368516 146.49263,89.2762201 C145.795633,89.2155886 145.20471,88.9427509 144.719843,88.457699 C144.234976,87.972647 143.962242,87.411814 143.901633,86.7751833 C143.841025,86.1385526 144.083455,85.4564585 144.628931,84.7288805 C145.659274,83.6375135 146.810817,82.5158477 148.083593,81.3638492 C149.35637,80.2118508 150.689735,79.1659731 152.083729,78.2261849 C153.477722,77.2863967 154.901999,76.5133567 156.356601,75.9070417 C157.811203,75.3007268 159.265783,74.9672585 160.720385,74.906627 C162.84168,74.8459955 164.478082,75.3158826 165.629642,76.3163023 C166.781202,77.316722 167.478189,78.605122 167.720622,80.1815409 L167.720622,80.1815409 Z M157.17481,99.7351011 C156.386901,99.9169956 155.553548,100.295937 154.674726,100.871936 C153.795904,101.447935 153.008006,102.145187 152.311009,102.963712 C151.614012,103.782237 151.098849,104.691696 150.765502,105.692116 C150.432156,106.692536 150.417004,107.677783 150.720046,108.647887 C150.841263,109.011676 151.098845,109.284513 151.4928,109.466408 C151.886754,109.648302 152.326159,109.678618 152.811026,109.557355 C154.265628,109.254197 155.917183,108.663049 157.76574,107.783892 C159.614296,106.904735 161.084028,105.949804 162.17498,104.919068 C162.17498,104.555279 161.993157,104.085392 161.629507,103.509393 C161.265856,102.933394 160.841604,102.357403 160.356736,101.781404 C159.871869,101.205405 159.341553,100.705202 158.765773,100.280782 C158.189993,99.8563614 157.659678,99.6744696 157.17481,99.7351011 L157.17481,99.7351011 Z M202.630896,84.092253 C202.87333,84.0316215 203.236975,83.9861485 203.721842,83.9558328 C204.20671,83.925517 204.676418,83.9558323 205.130981,84.0467796 C205.585544,84.1377268 205.979493,84.2893033 206.312839,84.5015135 C206.646185,84.7137238 206.84316,84.9714038 206.903768,85.2745613 C207.024985,86.0021392 206.918922,86.653918 206.585576,87.2299173 C206.252229,87.8059165 205.661306,88.3061188 204.812788,88.7305393 C202.509668,89.8219063 200.115672,91.0496757 197.630727,92.4138844 C195.145782,93.7780931 193.024519,95.0058625 191.266875,96.0972294 C192.357826,96.8248074 193.615432,97.6433203 195.03973,98.5527928 C196.464028,99.4622653 197.93376,100.417197 199.44897,101.417617 C200.964181,102.418036 202.479368,103.479072 203.994579,104.600754 C205.509789,105.722437 206.934066,106.828945 208.267451,107.920312 C209.479619,108.951048 209.691745,109.890822 208.903836,110.739663 C208.540186,111.164083 207.949262,111.467236 207.131049,111.649131 C206.312835,111.831025 205.540089,111.740079 204.812788,111.37629 C203.479403,110.709344 202.024823,109.905989 200.449004,108.9662 C198.873185,108.026412 197.267086,107.056323 195.630659,106.055903 C193.994232,105.055483 192.403285,104.055079 190.85777,103.054659 C189.312255,102.054239 187.903131,101.129623 186.630354,100.280782 C186.872788,102.402884 187.100066,104.524955 187.312195,106.647057 C187.524325,108.76916 187.721299,110.89123 187.903124,113.013333 C188.266775,114.165331 188.236471,115.105105 187.812212,115.832683 C187.387953,116.560261 186.690967,116.893729 185.721232,116.833098 C184.690889,116.651203 183.933295,116.241947 183.448428,115.605316 C182.963561,114.968685 182.599916,114.135015 182.357482,113.104279 C181.993831,110.618388 181.584731,107.677805 181.130168,104.282441 C180.675604,100.887077 180.205896,97.3705027 179.721029,93.7326129 C179.236162,90.094723 178.766453,86.5478336 178.31189,83.0918383 C177.857327,79.6358429 177.448226,76.5739982 177.084576,73.9062123 C176.963359,73.0573713 176.8876,72.1327549 176.857296,71.1323352 C176.826991,70.1319155 177.145181,69.4801366 177.811873,69.1769792 C178.721,68.8131902 179.660416,69.0102396 180.630151,69.7681333 C181.599885,70.526027 182.327175,71.6628505 182.812043,73.178638 C183.29691,75.9676869 183.78177,78.9992163 184.266638,82.2733171 C184.751505,85.547418 185.236365,89.0033615 185.721232,92.6412514 C186.933401,91.9136734 188.342525,91.1103181 189.948648,90.2311614 C191.554771,89.3520047 193.16087,88.5031764 194.766993,87.6846512 C196.373116,86.866126 197.873152,86.1234013 199.267146,85.4564548 C200.661139,84.7895084 201.782378,84.334779 202.630896,84.092253 L202.630896,84.092253 Z" id="Kayak"></path>
                <path d="M39.3771541,51.1891266 C37.1076457,51.0789143 34.9263062,51.2552513 32.8330702,51.7181428 C30.7398342,52.1810343 28.6686634,52.8092348 26.6194955,53.6027632 C26.090678,53.8011453 25.6885624,53.7791031 25.4131366,53.5366361 C25.1377108,53.2941692 25,53.0517058 25,52.8092388 C25.1542384,52.3904322 25.4296601,52.0487793 25.8262732,51.7842698 C30.3432561,49.5800245 34.8601713,48.7644659 39.3771541,49.3375697 C39.5974948,49.4036971 39.7792731,49.5635025 39.9224945,49.8169907 C40.0657159,50.0704789 40.1152918,50.2853896 40.0712237,50.4617292 C40.0271555,50.6821538 39.9610543,50.8640013 39.8729181,51.0072772 C39.7847818,51.1505532 39.6195288,51.211169 39.3771541,51.1891266 L39.3771541,51.1891266 Z M34.6839222,62.7282933 C34.6839222,62.9707603 34.6012957,63.185671 34.4360402,63.3730319 C34.2707848,63.5603927 34.0669728,63.6761139 33.8245981,63.7201988 C33.3839168,63.7863262 33.0974783,63.7091787 32.9652739,63.4887542 C32.8330695,63.2683296 32.7559515,63.0148452 32.7339174,62.7282933 C32.7118833,61.1853216 32.6843412,59.6478835 32.6512901,58.115933 C32.618239,56.5839825 32.5466294,55.0465444 32.436459,53.5035726 C32.436459,53.4154028 32.4254422,53.3107027 32.4034081,53.1894692 C32.381374,53.0682357 32.381374,52.9470041 32.4034081,52.8257706 C32.4254422,52.7045371 32.4750181,52.599837 32.5521373,52.5116672 C32.6292565,52.4234974 32.7559505,52.357371 32.932223,52.3132861 C33.4390064,52.2251163 33.802563,52.3077742 34.0229036,52.5612624 C34.2432443,52.8147507 34.3534129,53.0627245 34.3534129,53.3051915 C34.5296854,54.8922482 34.6398541,56.46826 34.6839222,58.0332742 C34.7279903,59.5982884 34.7279903,61.1632791 34.6839222,62.7282933 L34.6839222,62.7282933 Z M44.4008954,49.7012684 C44.4008954,50.2302873 44.3953869,50.8254246 44.3843699,51.4866982 C44.3733529,52.1479718 44.3733529,52.8312776 44.3843699,53.5366361 C44.3953869,54.2419947 44.4064038,54.9693847 44.4174208,55.7188281 C44.4284379,56.4682716 44.4449632,57.1846406 44.4669972,57.8679566 C44.6873378,57.4271075 44.9517426,56.9917756 45.2602195,56.5619478 C45.5686964,56.1321199 45.9157277,55.7518933 46.3013238,55.4212565 C46.6869199,55.0906197 47.0945439,54.8261142 47.5242082,54.6277321 C47.9538724,54.4293501 48.4220892,54.3301605 48.9288726,54.3301605 C49.4797242,54.3301605 49.9699748,54.5064975 50.399639,54.8591767 C50.8293032,55.211856 51.2038767,55.6802511 51.5233706,56.2643761 C51.8428645,56.8485012 52.1127777,57.4987438 52.3331183,58.2151235 C52.553459,58.9315033 52.7352373,59.6588933 52.8784587,60.3973155 C53.0216801,61.1357377 53.1263403,61.8410857 53.1924425,62.5133805 C53.2585447,63.1856753 53.313629,63.7642811 53.3576971,64.249215 C53.3576971,64.6018943 53.2695622,64.8884419 53.0932897,65.1088664 C52.9170172,65.329291 52.7076967,65.4395016 52.4653221,65.4395016 C52.2890495,65.4395016 52.0742207,65.3237804 51.8208289,65.0923347 C51.5674372,64.8608889 51.3856589,64.5798518 51.2754886,64.249215 C51.2093864,63.9847056 51.1432852,63.5989684 51.077183,63.091992 C51.0110808,62.5850156 50.9339628,62.039473 50.8458265,61.455348 C50.7576903,60.871223 50.6475216,60.2815962 50.5153172,59.6864499 C50.3831129,59.0913037 50.2233683,58.5567822 50.0360788,58.0828695 C49.8487892,57.6089567 49.6229435,57.2397512 49.3585347,56.9752417 C49.094126,56.7107323 48.7856537,56.6115427 48.4331087,56.6776701 C47.8822571,56.7878823 47.4030235,57.1736195 46.9953933,57.8348931 C46.5877631,58.4961667 46.2352234,59.2455989 45.9377636,60.0832121 C45.6403037,60.9208254 45.3979327,61.7694471 45.2106431,62.6291028 C45.0233536,63.4887585 44.8856428,64.1830854 44.7975065,64.7121042 C44.7093703,65.1088684 44.5936932,65.3788844 44.4504718,65.5221604 C44.3072503,65.6654363 44.1475058,65.7370732 43.9712333,65.7370732 C43.7949608,65.7370732 43.6352162,65.6489047 43.4919948,65.4725651 C43.3487734,65.2962255 43.216571,65.0813148 43.0953837,64.8278265 C42.9741963,64.5743383 42.8695361,64.3098329 42.7813998,64.0343022 C42.6932636,63.7587715 42.6381793,63.5218187 42.6161452,63.3234366 C42.5059749,62.1331441 42.4178399,60.9924643 42.3517378,59.9013628 C42.2856356,58.8102613 42.2360597,57.7136657 42.2030086,56.611543 C42.1699575,55.5094204 42.1534322,54.3797616 42.1534322,53.2225327 C42.1534322,52.0653039 42.1754659,50.8254345 42.219534,49.5028873 C42.219534,48.4007646 42.6161412,47.9048169 43.4093675,48.0150291 C43.6737762,48.059114 43.9051304,48.2519826 44.103437,48.5936406 C44.3017436,48.9352987 44.4008954,49.3045042 44.4008954,49.7012684 L44.4008954,49.7012684 Z M63.7356889,56.5784795 C62.8763604,57.085456 61.9509436,57.4767036 60.9594108,57.7522343 C59.967878,58.027765 58.899242,58.1655283 57.7534707,58.1655283 C57.7975388,58.9370141 58.0178762,59.548683 58.4144893,60.0005533 C58.8111024,60.4524236 59.3068614,60.7224396 59.9017811,60.8106095 C60.2543261,60.8546944 60.6123742,60.8436733 60.9759363,60.7775459 C61.3394983,60.7114186 61.6810212,60.6067185 62.0005151,60.4634426 C62.320009,60.3201666 62.611956,60.1603612 62.8763647,59.9840216 C63.1407735,59.807682 63.3721277,59.631345 63.5704342,59.4550053 C63.7687408,59.2786657 63.9780612,59.1629446 64.1984019,59.1078384 C64.4187425,59.0527323 64.5839955,59.0472218 64.6941658,59.0913067 C65.0026427,59.2015189 65.1128113,59.5321508 65.0246751,60.0832121 C64.6721301,60.7885706 64.1653542,61.3892185 63.5043324,61.8851737 C62.8433105,62.3811289 62.1051804,62.6952292 61.2899201,62.8274839 C60.5848301,62.9597386 59.8577169,62.9266754 59.1085588,62.7282933 C58.3594007,62.5299113 57.6873718,62.1441741 57.0924521,61.5710703 C56.5856687,61.0640939 56.2000784,60.4689566 55.9356696,59.7856405 C55.6712608,59.1023244 55.5060079,58.3969765 55.4399057,57.6695755 C55.3738035,56.9862595 55.4343962,56.3360168 55.6216858,55.7188281 C55.8089753,55.1016394 56.1009223,54.5560969 56.4975354,54.0821841 C56.8941485,53.6082714 57.3899075,53.2170237 57.9848272,52.9084294 C58.5797469,52.599835 59.2738095,52.423498 60.0670357,52.3794131 C61.0145004,52.3132858 61.873816,52.4896227 62.6450082,52.9084294 C63.4162004,53.327236 63.9560268,53.9113522 64.2645037,54.6607957 C64.4407762,55.0796023 64.4903521,55.4432973 64.4132329,55.7518917 C64.3361137,56.060486 64.1102679,56.3360125 63.7356889,56.5784795 L63.7356889,56.5784795 Z M59.934832,54.3301605 C59.7144914,54.3742454 59.4776288,54.4513928 59.224237,54.5616051 C58.9708453,54.6718174 58.7394911,54.8095806 58.5301675,54.974899 C58.3208439,55.1402174 58.1335572,55.3275755 57.9683017,55.5369788 C57.8030463,55.7463821 57.7094029,55.9833349 57.6873688,56.2478444 C58.0619479,56.2478444 58.4750804,56.2147812 58.9267787,56.1486538 C59.378477,56.0825265 59.8191516,55.9998685 60.2488158,55.9006775 C60.6784801,55.8014864 61.0750873,55.6857653 61.4386493,55.5535106 C61.8022113,55.4212558 62.1051751,55.277982 62.3475498,55.1236849 C62.1712773,54.7048782 61.8462798,54.4458833 61.3725474,54.3466923 C60.8988151,54.2475012 60.4195814,54.2419907 59.934832,54.3301605 L59.934832,54.3301605 Z" id="The"></path>
                <path d="M159.378298,128.945878 C159.294932,129.050126 159.143832,129.128311 158.924995,129.180435 C158.706158,129.232559 158.482113,129.175223 158.252855,129.008427 C158.086122,128.883329 157.88813,128.753021 157.658871,128.617499 C157.429613,128.481977 157.179517,128.351669 156.908576,128.226571 C156.637635,128.101474 156.366697,127.997228 156.095756,127.913829 C155.824815,127.830431 155.564298,127.788732 155.314198,127.788732 C155.001574,127.788732 154.673323,127.861705 154.329436,128.007652 C153.985549,128.153599 153.68856,128.362092 153.43846,128.633136 C152.959102,129.154376 152.787161,129.65997 152.922632,130.149936 C153.058103,130.639901 153.417616,131.093372 154.001182,131.510364 C154.376331,131.781408 154.782737,132.057661 155.220412,132.33913 C155.658086,132.6206 156.090544,132.896852 156.517797,133.167897 C156.945051,133.438942 157.351457,133.699557 157.737027,133.949752 C158.122598,134.199947 158.461269,134.418865 158.753052,134.606511 C159.128202,134.856706 159.482504,135.127746 159.815971,135.41964 C160.149437,135.711534 160.441216,136.03991 160.691315,136.404778 C160.941415,136.769646 161.139408,137.181419 161.285299,137.640109 C161.431191,138.0988 161.504135,138.620032 161.504135,139.20382 C161.358244,140.350547 160.904945,141.262702 160.144225,141.940314 C159.383505,142.617925 158.502959,143.050547 157.50256,143.238193 C156.627211,143.40499 155.767506,143.373716 154.92342,143.144371 C154.079333,142.915025 153.365518,142.477191 152.781952,141.830854 C152.63606,141.664057 152.511012,141.434715 152.406804,141.142821 C152.302596,140.850927 152.292175,140.642434 152.375542,140.517337 C152.500591,140.329691 152.719425,140.199383 153.03205,140.126409 C153.344675,140.053436 153.58435,140.069073 153.751083,140.173321 C154.230441,140.611162 154.793157,140.929113 155.439248,141.127184 C156.085339,141.325255 156.762682,141.340892 157.471298,141.174095 C158.01318,141.048998 158.450848,140.814444 158.784315,140.470426 C159.117781,140.126408 159.326194,139.735484 159.409561,139.297643 C159.513769,138.838952 159.456455,138.364631 159.237618,137.874666 C159.018781,137.384701 158.628006,136.941654 158.065281,136.545512 C157.210774,135.899175 156.298966,135.294546 155.32983,134.731608 C154.360693,134.168669 153.37594,133.522342 152.375542,132.792606 C151.896184,132.375615 151.547091,131.916931 151.328254,131.416541 C151.109417,130.916151 151,130.426193 151,129.946653 C151,129.446263 151.104207,128.971942 151.312623,128.523676 C151.521039,128.075411 151.812818,127.66885 152.187968,127.303982 C152.563117,126.939115 153.000785,126.642013 153.500985,126.412667 C154.001184,126.183322 154.553479,126.047802 155.157887,126.006102 C155.991553,125.964403 156.793944,126.13641 157.565085,126.522127 C158.336225,126.907844 158.961465,127.382165 159.440823,127.945104 C159.545031,128.070201 159.591924,128.226571 159.581503,128.414217 C159.571083,128.601863 159.503348,128.779082 159.378298,128.945878 L159.378298,128.945878 Z M165.849596,128.414217 C165.849596,128.914607 165.844386,129.477537 165.833965,130.103024 C165.823544,130.728512 165.823544,131.374839 165.833965,132.042025 C165.844386,132.709212 165.854806,133.397238 165.865227,134.106123 C165.875648,134.815009 165.891279,135.49261 165.912121,136.138947 C166.120537,135.721956 166.370633,135.310183 166.662416,134.903616 C166.954199,134.497049 167.28245,134.137399 167.647179,133.824655 C168.011907,133.511912 168.397472,133.261721 168.803884,133.074074 C169.210296,132.886428 169.653174,132.792606 170.132532,132.792606 C170.653573,132.792606 171.117293,132.959401 171.523705,133.292994 C171.930117,133.626587 172.284419,134.069634 172.586623,134.622148 C172.888827,135.174662 173.144133,135.789715 173.35255,136.467326 C173.560966,137.144938 173.732907,137.832964 173.868378,138.531424 C174.003849,139.229885 174.102845,139.897062 174.16537,140.532974 C174.227895,141.168886 174.279998,141.716179 174.321681,142.17487 C174.321681,142.508463 174.238316,142.779504 174.071583,142.988 C173.90485,143.196495 173.706857,143.300742 173.477599,143.300742 C173.310866,143.300742 173.107663,143.191283 172.867984,142.972363 C172.628305,142.753442 172.456364,142.487614 172.352156,142.17487 C172.289631,141.924675 172.227107,141.559813 172.164582,141.080273 C172.102057,140.600732 172.029113,140.084713 171.945746,139.532199 C171.862379,138.979685 171.758173,138.421968 171.633123,137.859029 C171.508073,137.29609 171.356973,136.790496 171.179819,136.34223 C171.002666,135.893964 170.789042,135.544738 170.538942,135.294543 C170.288842,135.044349 169.997064,134.950527 169.663598,135.013076 C169.142556,135.117323 168.689258,135.482186 168.303687,136.107673 C167.918117,136.73316 167.584656,137.442035 167.303293,138.234319 C167.021931,139.026603 166.792677,139.8293 166.615523,140.642434 C166.438369,141.455567 166.30811,142.112319 166.224744,142.612709 C166.141377,142.988002 166.03196,143.243405 165.89649,143.378927 C165.761019,143.51445 165.609919,143.58221 165.443186,143.58221 C165.276453,143.58221 165.125353,143.498813 164.989883,143.332016 C164.854412,143.165219 164.729364,142.961939 164.614735,142.722169 C164.500106,142.482399 164.40111,142.232208 164.317743,141.971588 C164.234376,141.710968 164.182273,141.486838 164.161431,141.299192 C164.057223,140.173315 163.973858,139.094365 163.911333,138.062311 C163.848808,137.030257 163.801915,135.993006 163.770653,134.950527 C163.73939,133.908048 163.723759,132.839523 163.723759,131.74492 C163.723759,130.650317 163.7446,129.477546 163.786284,128.226571 C163.786284,127.184093 164.161428,126.714984 164.911727,126.819232 C165.161827,126.860931 165.38066,127.043362 165.568235,127.366531 C165.75581,127.689699 165.849596,128.038924 165.849596,128.414217 L165.849596,128.414217 Z M184.388144,130.697234 C184.471511,131.281022 184.539245,131.901288 184.591349,132.55805 C184.643453,133.214812 184.685136,133.876776 184.716399,134.543962 C184.747661,135.211149 184.763292,135.857476 184.763292,136.482964 C184.763292,137.108451 184.752871,137.671381 184.73203,138.171771 C185.398962,138.630462 185.800158,139.037022 185.935629,139.391465 C186.071099,139.745908 186.08673,140.058647 185.982522,140.329692 C185.857472,140.704984 185.633428,140.89784 185.310382,140.908265 C184.987337,140.918689 184.617403,140.809231 184.200571,140.579885 C183.908788,140.788381 183.575326,141.012511 183.200177,141.252281 C182.825027,141.492051 182.429042,141.721393 182.012209,141.940314 C181.595376,142.159234 181.17855,142.35209 180.761717,142.518887 C180.344884,142.685683 179.959319,142.800354 179.605011,142.862903 C178.938079,142.967151 178.338891,142.842055 177.807429,142.487612 C177.275967,142.133169 176.916454,141.601513 176.728879,140.892627 C176.603829,140.413087 176.572567,139.917917 176.635092,139.407102 C176.697617,138.896288 176.853927,138.40633 177.104027,137.937214 C177.354126,137.468099 177.692798,137.045901 178.120052,136.670609 C178.547305,136.295316 179.052708,136.003427 179.636274,135.794931 C179.782165,135.732382 179.985368,135.680259 180.245889,135.63856 C180.506409,135.596861 180.777346,135.581224 181.058709,135.591648 C181.340071,135.602073 181.626639,135.659409 181.918422,135.763657 C182.210205,135.867905 182.481142,136.045123 182.731242,136.295318 C182.731242,135.940875 182.726032,135.549952 182.715611,135.122535 C182.70519,134.695119 182.689559,134.262497 182.668717,133.824655 C182.647876,133.386814 182.621824,132.975041 182.590562,132.589324 C182.559299,132.203607 182.522827,131.875231 182.481144,131.604186 C182.43946,131.291443 182.319623,131.098587 182.121627,131.025613 C181.923631,130.95264 181.678746,130.968277 181.386963,131.072525 C180.886763,131.239321 180.303206,131.562485 179.636274,132.042025 C178.969341,132.521566 178.333681,133.032373 177.729273,133.574462 C177.541698,133.762108 177.328074,133.845505 177.088396,133.824655 C176.848717,133.803806 176.645514,133.709984 176.478781,133.543188 C176.312047,133.376391 176.218261,133.183535 176.19742,132.964615 C176.176578,132.745694 176.259943,132.51114 176.447518,132.260945 C176.801826,131.885652 177.197811,131.499941 177.635486,131.103799 C178.07316,130.707657 178.53167,130.348007 179.011027,130.024839 C179.490385,129.70167 179.980157,129.435842 180.480356,129.227346 C180.980555,129.01885 181.480747,128.90418 181.980947,128.88333 C182.710404,128.86248 183.27312,129.024062 183.669111,129.36808 C184.065103,129.712098 184.304778,130.155145 184.388144,130.697234 L184.388144,130.697234 Z M180.761717,137.42119 C180.490775,137.483739 180.204207,137.614047 179.902003,137.812118 C179.599799,138.010189 179.328862,138.249955 179.089183,138.531424 C178.849504,138.812894 178.672353,139.125633 178.557724,139.469651 C178.443095,139.813669 178.437885,140.152469 178.542093,140.486063 C178.583776,140.61116 178.672352,140.704982 178.807822,140.767531 C178.943293,140.830079 179.094393,140.840504 179.261126,140.798805 C179.761325,140.694557 180.329252,140.491277 180.964922,140.188958 C181.600592,139.886639 182.105994,139.558263 182.481144,139.20382 C182.481144,139.078723 182.41862,138.917141 182.29357,138.71907 C182.16852,138.520999 182.022631,138.322931 181.855897,138.12486 C181.689164,137.926789 181.506803,137.754782 181.308807,137.608835 C181.110811,137.462888 180.92845,137.40034 180.761717,137.42119 L180.761717,137.42119 Z M194.986067,134.23122 C194.840175,134.314619 194.663024,134.34068 194.454607,134.309406 C194.246191,134.278131 194.06904,134.147823 193.923148,133.918478 C193.589682,133.480637 193.183276,133.26172 192.703918,133.26172 C192.266244,133.26172 191.875469,133.360754 191.531582,133.558825 C191.187695,133.756896 190.885495,134.017512 190.624975,134.34068 C190.364454,134.663848 190.150831,135.023498 189.984097,135.41964 C189.817364,135.815782 189.702737,136.211918 189.640212,136.60806 C189.536004,137.337796 189.661052,137.952849 190.01536,138.453239 C190.369668,138.953629 190.921963,139.20382 191.672262,139.20382 C192.27667,139.22467 192.959223,139.104786 193.719943,138.844167 C194.480663,138.583547 195.194479,138.244746 195.861411,137.827755 C196.153194,137.702657 196.424131,137.629685 196.674231,137.608835 C196.924331,137.587986 197.132744,137.713081 197.299477,137.984126 C197.507894,138.317719 197.45579,138.65652 197.143166,139.000538 C196.830541,139.344556 196.413715,139.652082 195.892674,139.923127 C195.371632,140.215021 194.824548,140.470425 194.251402,140.689345 C193.678257,140.908266 193.09991,141.064635 192.516344,141.158458 C191.932778,141.252281 191.354431,141.257494 190.781286,141.174095 C190.208141,141.090697 189.671477,140.892629 189.171277,140.579885 C188.379295,140.037796 187.899944,139.266373 187.733211,138.265594 C187.566478,137.264814 187.639423,136.232775 187.952047,135.169447 C188.077097,134.773305 188.254249,134.371956 188.483507,133.965389 C188.712765,133.558823 188.988912,133.188748 189.311958,132.855155 C189.635003,132.521562 189.994516,132.234884 190.390507,131.995114 C190.786499,131.755344 191.224167,131.593762 191.703524,131.510364 C192.474665,131.385266 193.214532,131.463451 193.923148,131.74492 C194.631764,132.02639 195.100694,132.542409 195.329952,133.292994 C195.371635,133.459791 195.371635,133.631797 195.329952,133.809018 C195.288269,133.98624 195.173641,134.126972 194.986067,134.23122 L194.986067,134.23122 Z M207.709826,132.042025 C207.793192,132.021176 207.91824,132.005539 208.084973,131.995114 C208.251707,131.984689 208.413227,131.995114 208.569539,132.026388 C208.725852,132.057663 208.86132,132.109786 208.975949,132.182759 C209.090578,132.255733 209.158313,132.344342 209.179154,132.44859 C209.220837,132.698785 209.184365,132.922915 209.069736,133.120986 C208.955107,133.319057 208.751904,133.491063 208.460121,133.63701 C207.668139,134.012303 206.844906,134.4345 205.990399,134.903616 C205.135891,135.372731 204.406445,135.794929 203.802037,136.170221 C204.177187,136.420416 204.609644,136.701881 205.099423,137.014625 C205.589202,137.327369 206.094604,137.655745 206.615645,137.999763 C207.136686,138.343781 207.657719,138.708643 208.17876,139.09436 C208.699801,139.480077 209.189573,139.860577 209.648089,140.235869 C210.064922,140.590312 210.137866,140.913475 209.866925,141.20537 C209.741875,141.351317 209.538672,141.455563 209.25731,141.518112 C208.975948,141.58066 208.710221,141.549387 208.460121,141.424289 C208.001605,141.194944 207.501413,140.918691 206.95953,140.595522 C206.417648,140.272354 205.865352,139.938766 205.302628,139.594748 C204.739904,139.25073 204.192819,138.906717 203.661357,138.562699 C203.129895,138.218681 202.645334,137.900729 202.20766,137.608835 C202.291026,138.33857 202.369181,139.068295 202.442127,139.79803 C202.515073,140.527765 202.582807,141.25749 202.645332,141.987225 C202.770382,142.383367 202.759961,142.706531 202.61407,142.956725 C202.468178,143.20692 202.228503,143.321591 201.895037,143.300742 C201.540729,143.238193 201.280212,143.097461 201.113479,142.87854 C200.946746,142.659619 200.821698,142.372942 200.738331,142.018499 C200.613281,141.163666 200.472602,140.152477 200.31629,138.984901 C200.159978,137.817324 199.998457,136.608067 199.831724,135.357092 C199.664991,134.106117 199.503471,132.886435 199.347158,131.698009 C199.190846,130.509583 199.050167,129.456695 198.925117,128.539314 C198.883434,128.247419 198.857382,127.929468 198.846962,127.58545 C198.836541,127.241432 198.945958,127.017302 199.175216,126.913055 C199.48784,126.787957 199.810881,126.855717 200.144347,127.116337 C200.477814,127.376957 200.72791,127.76788 200.894643,128.28912 C201.061376,129.248201 201.228106,130.290664 201.39484,131.416541 C201.561573,132.542418 201.728303,133.730827 201.895037,134.981801 C202.311869,134.731606 202.79643,134.455354 203.348734,134.153035 C203.901037,133.850716 204.453333,133.558826 205.005636,133.277357 C205.55794,132.995887 206.073763,132.740484 206.55312,132.511139 C207.032478,132.281793 207.418043,132.125424 207.709826,132.042025 L207.709826,132.042025 Z" id="Shack"></path>
            </g>
        </g>
    </g>
</svg>